<svg xmlns="http://www.w3.org/2000/svg" viewBox="0 0 620 190" role="img" aria-labelledby="t d">
<title id="t">Deva Alüminyum</title><desc id="d">Deva Alüminyum Kayseri Cephe Sistemleri</desc>
<defs>
  <linearGradient id="b" x1="0" y1="0" x2="1" y2="1"><stop stop-color="#58A9FF"/><stop offset=".5" stop-color="#2F80FF"/><stop offset="1" stop-color="#0E5FE6"/></linearGradient>
  <linearGradient id="m" x1="0" y1="0" x2="0" y2="1"><stop stop-color="#FFFFFF"/><stop offset=".55" stop-color="#EEF3F8"/><stop offset="1" stop-color="#B8C3CC"/></linearGradient>
</defs>
<g transform="translate(8 12)">
  <path fill="url(#b)" d="M14 0h62c50 0 88 35 88 82s-38 82-88 82H14V0Zm35 34v96h26c31 0 53-19 53-48S106 34 75 34H49Z"/>
  <path fill="#07101A" d="M18 150c17-52 50-87 101-105-35 25-59 53-76 88 17-25 37-44 63-60-24 24-42 48-55 77H18Z"/>
  <path fill="#78B8FF" d="M23 145c17-41 42-71 80-90-27 24-48 53-63 90H23Z"/>
</g>
<g fill="url(#m)" font-family="Arial,Helvetica,sans-serif" font-weight="800">
  <text x="190" y="116" font-size="112" letter-spacing="-7">DEVA</text>
</g>
<text x="196" y="156" fill="#E8EEF4" font-family="Arial,Helvetica,sans-serif" font-size="30" font-weight="600" letter-spacing="13">ALÜMİNYUM</text>
<line x1="196" y1="178" x2="224" y2="178" stroke="#2F80FF" stroke-width="4"/>
<text x="238" y="183" fill="#9DAAB5" font-family="Arial,Helvetica,sans-serif" font-size="13" font-weight="700" letter-spacing="4">KAYSERİ · CEPHE SİSTEMLERİ</text>
<line x1="562" y1="178" x2="592" y2="178" stroke="#2F80FF" stroke-width="4"/>
</svg>